<svg width="1200" height="630" viewBox="0 0 1200 630" fill="none" xmlns="http://www.w3.org/2000/svg">
  <!-- Background gradient -->
  <defs>
    <linearGradient id="bgGradient" x1="0%" y1="0%" x2="100%" y2="100%">
      <stop offset="0%" style="stop-color:#0f0f23"/>
      <stop offset="50%" style="stop-color:#1a1a3e"/>
      <stop offset="100%" style="stop-color:#0f0f23"/>
    </linearGradient>
    <linearGradient id="accentGradient" x1="0%" y1="0%" x2="100%" y2="0%">
      <stop offset="0%" style="stop-color:#6366f1"/>
      <stop offset="100%" style="stop-color:#a855f7"/>
    </linearGradient>
    <linearGradient id="textGradient" x1="0%" y1="0%" x2="100%" y2="0%">
      <stop offset="0%" style="stop-color:#6366f1"/>
      <stop offset="100%" style="stop-color:#a855f7"/>
    </linearGradient>
  </defs>
  
  <!-- Background -->
  <rect width="1200" height="630" fill="url(#bgGradient)"/>
  
  <!-- Decorative elements -->
  <circle cx="100" cy="100" r="200" fill="#6366f1" opacity="0.1"/>
  <circle cx="1100" cy="530" r="250" fill="#a855f7" opacity="0.1"/>
  <circle cx="900" cy="150" r="100" fill="#6366f1" opacity="0.05"/>
  
  <!-- Grid pattern -->
  <g opacity="0.03">
    <line x1="0" y1="100" x2="1200" y2="100" stroke="white" stroke-width="1"/>
    <line x1="0" y1="200" x2="1200" y2="200" stroke="white" stroke-width="1"/>
    <line x1="0" y1="300" x2="1200" y2="300" stroke="white" stroke-width="1"/>
    <line x1="0" y1="400" x2="1200" y2="400" stroke="white" stroke-width="1"/>
    <line x1="0" y1="500" x2="1200" y2="500" stroke="white" stroke-width="1"/>
    <line x1="200" y1="0" x2="200" y2="630" stroke="white" stroke-width="1"/>
    <line x1="400" y1="0" x2="400" y2="630" stroke="white" stroke-width="1"/>
    <line x1="600" y1="0" x2="600" y2="630" stroke="white" stroke-width="1"/>
    <line x1="800" y1="0" x2="800" y2="630" stroke="white" stroke-width="1"/>
    <line x1="1000" y1="0" x2="1000" y2="630" stroke="white" stroke-width="1"/>
  </g>
  
  <!-- Logo icon (chat bubble with flow) -->
  <g transform="translate(500, 180)">
    <rect x="0" y="0" width="200" height="200" rx="40" fill="url(#accentGradient)"/>
    <!-- Chat bubbles inside -->
    <circle cx="70" cy="80" r="25" fill="white" opacity="0.9"/>
    <circle cx="130" cy="80" r="25" fill="white" opacity="0.7"/>
    <circle cx="100" cy="130" r="25" fill="white" opacity="0.8"/>
    <!-- Connection lines -->
    <line x1="70" y1="80" x2="130" y2="80" stroke="white" stroke-width="3" opacity="0.5"/>
    <line x1="70" y1="80" x2="100" y2="130" stroke="white" stroke-width="3" opacity="0.5"/>
    <line x1="130" y1="80" x2="100" y2="130" stroke="white" stroke-width="3" opacity="0.5"/>
  </g>
  
  <!-- Title -->
  <text x="600" y="440" text-anchor="middle" font-family="system-ui, -apple-system, 'Segoe UI', Roboto, sans-serif" font-size="72" font-weight="700" fill="white">
    Interflow
  </text>
  
  <!-- Subtitle -->
  <text x="600" y="500" text-anchor="middle" font-family="system-ui, -apple-system, 'Segoe UI', Roboto, sans-serif" font-size="32" fill="#a1a1aa">
    Documentação Oficial
  </text>
  
  <!-- Tagline -->
  <text x="600" y="550" text-anchor="middle" font-family="system-ui, -apple-system, 'Segoe UI', Roboto, sans-serif" font-size="20" fill="#71717a">
    Atendimento Multicanal • CRM • Automação
  </text>
  
  <!-- Bottom accent line -->
  <rect x="400" y="590" width="400" height="4" rx="2" fill="url(#accentGradient)"/>
</svg>

